<?xml version="1.0" encoding="UTF-8"?>
<svg id="Layer_1" data-name="Layer 1" xmlns="http://www.w3.org/2000/svg" xmlns:xlink="http://www.w3.org/1999/xlink" viewBox="0 0 262.9 76.19">
  <defs>
    <style>
      .cls-3 {
        fill: url(#Degradado_sin_nombre_10-10);
      }

      .cls-4 {
        fill: url(#Degradado_sin_nombre_10-8);
      }

      .cls-7 {
        fill: url(#Degradado_sin_nombre_10-6);
      }

      .cls-9 {
        fill: url(#Degradado_sin_nombre_10-7);
      }

      .cls-10 {
        fill: url(#Degradado_sin_nombre_10-9);
      }
    </style>
    <linearGradient id="Degradado_sin_nombre_10" data-name="Degradado sin nombre 10" x1="1.14" y1="62.07" x2="117.85" y2="60.61" gradientUnits="userSpaceOnUse">
      <stop offset="0" stop-color="#c91843"/>
      <stop offset="1" stop-color="#9b1b39"/>
    </linearGradient>
    <linearGradient id="Degradado_sin_nombre_10-2" data-name="Degradado sin nombre 10" x1="1.14" y1="61.79" x2="117.85" y2="60.33" xlink:href="#Degradado_sin_nombre_10"/>
    <linearGradient id="Degradado_sin_nombre_10-3" data-name="Degradado sin nombre 10" x1="1.13" y1="61.42" x2="117.84" y2="59.96" xlink:href="#Degradado_sin_nombre_10"/>
    <linearGradient id="Degradado_sin_nombre_10-4" data-name="Degradado sin nombre 10" x1="1.15" y1="62.66" x2="117.86" y2="61.2" xlink:href="#Degradado_sin_nombre_10"/>
    <linearGradient id="Degradado_sin_nombre_10-5" data-name="Degradado sin nombre 10" x1="1.14" y1="62.27" x2="117.86" y2="60.81" xlink:href="#Degradado_sin_nombre_10"/>
    <linearGradient id="Degradado_sin_nombre_10-6" data-name="Degradado sin nombre 10" x1="261.6" y1="42.88" x2="1.66" y2="13.44" xlink:href="#Degradado_sin_nombre_10"/>
    <linearGradient id="Degradado_sin_nombre_10-7" data-name="Degradado sin nombre 10" x1="260.83" y1="49.7" x2=".89" y2="20.26" xlink:href="#Degradado_sin_nombre_10"/>
    <linearGradient id="Degradado_sin_nombre_10-8" data-name="Degradado sin nombre 10" x1="259.48" y1="61.58" x2="-.46" y2="32.14" xlink:href="#Degradado_sin_nombre_10"/>
    <linearGradient id="Degradado_sin_nombre_10-9" data-name="Degradado sin nombre 10" x1="262.22" y1="37.41" x2="2.28" y2="7.97" xlink:href="#Degradado_sin_nombre_10"/>
    <linearGradient id="Degradado_sin_nombre_10-10" data-name="Degradado sin nombre 10" x1="261.94" y1="39.87" x2="2" y2="10.43" xlink:href="#Degradado_sin_nombre_10"/>
  </defs>

  <g>
    <path class="cls-7" d="M262.7,52.39c.13-.85.36-1.64.04-2.56-.32-.93-1.07-1.47-1.77-1.98-1.28-.87-2.55-1.59-3.81-2.35-3.77-2.35-7.77-4.54-11.92-6.09-11.08-4.3-22.62-7.19-34.27-9.47-3.09-.67-6.54-.82-9.48-1.69-2.31-.78-4.37-2-6.55-3.16-3.85-2.11-7.69-4.35-11.6-6.4-16.41-8.91-34.25-15.65-52.92-17.69C120.85-.07,111.03-.16,101.41.17c-23,.58-46.01,4.94-67.36,13.58-9.01,3.56-17.54,8.3-26.58,11.75.24.74.44,1.49.74,2.19l.36.91c.06.15.14.31.16.42.65,3.88-.41,7.93-.07,11.86.82-2.49.96-5.08,1.15-7.67.07-1.33.12-2.61-.09-3.96-.07-.62-.5-1.31-.73-1.89-.2-.47-.4-.94-.58-1.41,11.19-3.26,21.69-8.35,32.89-11.49,18.08-5.48,36.98-8.37,55.86-8.78,10.11-.26,20.4-.26,30.46.8,14.37,1.39,28.32,5.45,41.52,11.26,8.03,3.43,15.83,7.57,23.59,11.58,2.77,1.35,5.64,2.89,8.71,3.52,3.15.57,5.83.65,8.88,1.13,11.51,1.7,23.04,3.99,34.08,7.72,4.18,1.36,8.05,3.29,11.86,5.43,1.29.7,2.61,1.38,3.8,2.11.58.37,1.11.78,1.23,1.15.3,1.02-.26,2.82-.31,4.01,0,0-.22,2.2-.22,2.2-.15,2.19-.83,4.56-.15,6.77.19.7.67,1.61.87,2.05.22,1.05-.03,2.24-.04,3.31-.02.39-.03.79-.01,1.2.41-.7.66-1.47.82-2.26.12-.84.26-1.67.06-2.52-.3-.68-.59-1.36-.77-2.04-.51-2.1.23-4.2.46-6.35.16-1.3.47-3.05.69-4.33Z"/>
    <path class="cls-9" d="M257.72,50.59c-.55,0-1.26-.34-1.88-.48-2.94-.84-5.93-1.54-9.07-1.61h-.65c-1.24-.22-2.53-1.1-3.73-1.79-1.82-1.1-3.64-2.32-5.66-3.4,1.06,2.03,2.48,3.79,4.12,5.39,1.49,1.35,3.21,2.87,5.46,2.96.37,0,.77.03,1.14.05,2.6.16,5.4.46,8.11.46.91-.05,2.18.13,2.92-.6.73-.76.68-1.86.45-2.74-.27.68-.57,1.49-1.21,1.75Z"/>
    <path class="cls-4" d="M29.87,35.72c-2.45-1.97-5.13-3.25-7.88-4.68-2.67-1.31-5.4-2.51-8.29-3.42,3.33,3.07,6.94,5.59,10.64,8.1.94.68,2.33,1.47,3.29,2.3-.36.03-.73.04-.95.06-4.11.29-8.16.72-12.2,1.69,4.08.82,8.1,1.11,12.2,1.25.85.01,1.74.1,2.62-.14,2.85-.79,2.55-3.54.56-5.15ZM28.55,37.85s.04-.02.04-.02c.01,0,0,0-.04.02Z"/>
    <path class="cls-10" d="M190.26,35.16c-1.85-1.62-5.82-4.76-8.66-6.62-2.97-1.97-6.26-3.94-9.41-5.59-4.27-2.18-8.84-4.18-13.34-5.8-12.87-4.52-26.53-7.15-40.19-6.99,15.77,1.6,31.36,5.7,45.77,12.3,7.3,3.36,14.2,7.55,20.54,12.46-6.45-.6-13.46-.79-19.76-1.13-11.02-.43-22.25-.75-33.27-.61-2.77.05-5.55.1-8.32.32,19.84,1.27,42.23,3.04,62.06,4.62,1.3.11,2.54.47,3.89.28,1.09-.17,1.83-1.28,1.42-2.32-.17-.42-.4-.67-.73-.92ZM188.29,37.62c.05.04.1.08.15.13-.05-.03-.11-.08-.15-.13Z"/>
    <path class="cls-3" d="M40.25,23.64c-.35-.12-.86-.27-1.16-.42-.36-.17-.75-.37-1.1-.58.52-.34,1.19-.63,1.77-.89,1.38-.59,2.84-1.1,4.34-1.59,20.98-6.94,43.11-9.96,65.16-10.63-12.68-1-25.51-.4-38.11,1.31-11.06,1.54-22.17,4.03-32.63,8-1.56.74-4.09,1.62-4.18,3.87.03,1.85,2,2.69,3.38,3.37.51.25,1.12.41,1.63.59,2.58.72,5.13,1.2,7.74,1.65,21.22,3.31,42.78,4.02,64.22,3.92-22.05-2.19-44.18-3.49-65.99-7.41-1.72-.35-3.41-.71-5.06-1.19Z"/>
  </g>
</svg>